<?xml version="1.0" encoding="utf-8"?>
<!-- Generator: Adobe Illustrator 21.0.2, SVG Export Plug-In . SVG Version: 6.00 Build 0)  -->
<svg version="1.1" id="图层_1" xmlns="http://www.w3.org/2000/svg" xmlns:xlink="http://www.w3.org/1999/xlink" x="0px" y="0px"
     viewBox="0 0 172 28" style="enable-background:new 0 0 172 28;" xml:space="preserve">
                            <style type="text/css">
                                .st0{fill:#FFFFFF;}
                                .st1{font-family:'LiHeiPro';}
                                .st2{font-size:33px;}
                                .st3{font-size:31px;}
                                .st4{letter-spacing:-1;}
                                .st5{font-size:32px;}
                                .st6{fill:#2999F5;}
                            </style>
    <title>logo</title>
    <desc>Created with Sketch.</desc>
    <text transform="matrix(1 0 0 1 41 27)" class="st0 st1 st2">S</text>
    <text transform="matrix(1 0 0 1 62.5908 27)" class="st0 st1 st2"> </text>
    <text transform="matrix(1 0 0 1 62.591 27)" class="st0 st1 st3">U</text>
    <text transform="matrix(1 0 0 1 84.0544 27)" class="st0 st1 st2"> </text>
    <text transform="matrix(1 0 0 1 84.0546 27)" class="st0 st1 st2 st4">C</text>
    <text transform="matrix(1 0 0 1 105.7564 27)" class="st0 st1 st2"> </text>
    <text transform="matrix(1 0 0 1 105.7566 27)" class="st0 st1 st2">C</text>
    <text transform="matrix(1 0 0 1 128.2584 27)" class="st0 st1 st2"> </text>
    <text transform="matrix(1 0 0 1 128.2586 27)" class="st0 st1 st5">EZ</text>
    <g id="vi-" transform="translate(-61.000000, -3635.000000)">
                                <g id="Group-Copy-6" transform="translate(61.000000, 3635.000000)">
                                    <path id="Path-26-Copy-2" class="st6" d="M15.3,4.1c1.5-1.2,4.1-1.2,5.6,0l12.5,9.3c0.8,0.6,2.2,0.6,3,0c0.8-0.6,0.8-1.6,0-2.3
                                        L23.9,1.8c-3.2-2.4-8.4-2.4-11.6,0L2.8,8.9L16.2,19c0.8,0.6,2.2,0.6,3,0s0.8-1.6,0-2.3L8.8,8.9L15.3,4.1z"/>
                                    <path id="Path-26-Copy-3" class="st0" d="M21.7,23.7c-1.5,1.2-4.1,1.2-5.6,0L3.6,14.4c-0.8-0.6-2.2-0.6-3,0s-0.8,1.6,0,2.3
                                        l12.5,9.3c3.2,2.4,8.4,2.4,11.6,0l9.5-7.1L20.8,8.8c-0.8-0.6-2.2-0.6-3,0c-0.8,0.6-0.8,1.6,0,2.3l10.4,7.8L21.7,23.7z"/>
                                </g>
                            </g>
                      </svg>